<svg width="30" height="30" viewBox="0 0 30 30" fill="none" xmlns="http://www.w3.org/2000/svg">
<path d="M11.2338 5.10591L10.3375 5.37591C9.53947 5.61657 8.8268 6.08019 8.28337 6.71221C7.73993 7.34422 7.38835 8.11833 7.27 8.94341C6.89875 11.5284 7.72875 14.5509 9.73 18.0172C11.7263 21.4747 13.9238 23.7022 16.3425 24.6772C17.1197 24.9904 17.9704 25.0738 18.7936 24.9176C19.6168 24.7614 20.3779 24.3721 20.9863 23.7959L21.6638 23.1534C22.1037 22.737 22.3775 22.1751 22.4343 21.5721C22.4911 20.969 22.327 20.3658 21.9725 19.8747L20.2775 17.5247C20.0483 17.2074 19.7256 16.9698 19.3547 16.8452C18.9837 16.7205 18.583 16.7151 18.2088 16.8297L15.645 17.6134L15.5788 17.6259C15.2963 17.6672 14.6438 17.0559 13.8313 15.6484C12.9813 14.1759 12.8063 13.3147 13.04 13.0922L14.3438 11.8759C14.8205 11.4315 15.1462 10.849 15.2751 10.2101C15.404 9.57115 15.3297 8.90792 15.0625 8.31341L14.235 6.47466C13.9862 5.92134 13.5446 5.47738 12.9927 5.22555C12.4407 4.97372 11.8147 4.93119 11.2338 5.10591ZM13.0975 6.98716L13.9225 8.82591C14.0832 9.18245 14.1281 9.58037 14.051 9.96375C13.9738 10.3471 13.7785 10.6967 13.4925 10.9634L12.185 12.1809C11.3475 12.9734 11.625 14.3259 12.75 16.2734C13.8075 18.1059 14.7725 19.0109 15.81 18.8534L15.965 18.8209L18.575 18.0247C18.6998 17.9863 18.8334 17.988 18.9571 18.0295C19.0809 18.071 19.1885 18.1501 19.265 18.2559L20.96 20.6059C21.1375 20.8515 21.2197 21.1531 21.1915 21.4548C21.1632 21.7565 21.0263 22.0376 20.8063 22.2459L20.1275 22.8884C19.6929 23.2997 19.1494 23.5776 18.5616 23.689C17.9737 23.8005 17.3662 23.7408 16.8113 23.5172C14.6888 22.6622 12.6825 20.6284 10.8138 17.3922C8.94 14.1484 8.18125 11.3897 8.5075 9.12091C8.59195 8.53145 8.84307 7.97838 9.23128 7.52684C9.61948 7.07529 10.1286 6.74407 10.6988 6.57216L11.595 6.30216C11.8856 6.21484 12.198 6.23619 12.474 6.36223C12.75 6.48827 12.9707 6.71038 13.095 6.98716" fill="#E5B638"/>
</svg>
