<svg width="24" height="24" viewBox="0 0 24 24" fill="none" xmlns="http://www.w3.org/2000/svg">
<path d="M5.1375 8.73747C5.64375 9.5531 6.20625 9.6656 6.6 9.18747C7.21875 8.45622 6.54375 7.5281 5.8125 7.27497C4.60312 6.79685 3.5625 8.14685 3.5625 8.14685C3.5625 8.14685 4.71562 8.03435 5.1375 8.73747Z" fill="#F29A2E"/>
<path d="M15.0375 5.86872C12.8719 7.13434 14.6719 10.1718 10.7625 10.9875L14.925 13.0406C15.7687 14.5031 18.1031 14.6156 18.1031 14.6156C18.1031 14.6156 18.6937 12.8718 18.2156 11.5781C19.5094 11.5781 20.4094 10.7906 20.4094 10.7906C20.4094 10.7906 19.6781 8.20309 17.4562 8.20309C19.65 7.30309 20.0437 5.44684 20.0437 5.44684C20.0437 5.44684 18.1031 4.09684 15.0375 5.86872Z" fill="#E1EAF2"/>
<path d="M13.0406 20.4375H9.01875C9.01875 20.1 11.3813 20.0438 11.4938 17.7938C11.8594 20.2969 13.0406 20.1 13.0406 20.4375Z" fill="#F4BC58"/>
<path d="M10.9875 11.4594L10.9918 11.4594C11.8707 11.4518 12.6958 11.2721 13.4201 11.0717C13.7445 10.9819 14.0328 10.8934 14.2976 10.8121C14.6558 10.7022 14.971 10.6054 15.2747 10.5364C15.8098 10.415 16.035 10.4566 16.137 10.5302C16.225 10.5938 16.3938 10.8154 16.3938 11.6063C16.3938 13.0927 15.7833 14.617 14.7861 15.7684C13.7899 16.9186 12.4426 17.6594 10.9875 17.6594C9.53236 17.6594 8.18508 16.9186 7.18889 15.7684C6.19169 14.617 5.58125 13.0927 5.58125 11.6063C5.58125 11.4307 5.62637 11.3307 5.6776 11.2654C5.73322 11.1945 5.82997 11.1222 5.99727 11.0628C6.34882 10.9381 6.88116 10.9156 7.52923 10.969C8.16335 11.0213 8.84062 11.1392 9.45522 11.2482C9.4884 11.2541 9.52157 11.26 9.55469 11.2659C10.1052 11.3638 10.6426 11.4594 10.9875 11.4594Z" fill="#D1DCE6" stroke="white"/>
<path d="M11.5339 17.2023C11.9437 17.1693 12.3468 17.1646 12.642 17.1841C12.6361 17.198 12.6299 17.2123 12.6234 17.2269C12.5406 17.4117 12.42 17.6143 12.2758 17.801C12.1307 17.9889 11.9731 18.146 11.8226 18.2519C11.6675 18.361 11.5567 18.3907 11.4938 18.3907C11.265 18.3907 10.9467 18.2435 10.6619 17.9706C10.4544 17.7718 10.3349 17.5751 10.2823 17.4333C10.3224 17.417 10.3734 17.399 10.4367 17.3803C10.7163 17.2976 11.1136 17.2362 11.5339 17.2023ZM10.1693 17.4918C10.1692 17.4918 10.1702 17.4909 10.1725 17.4892C10.1705 17.4909 10.1694 17.4918 10.1693 17.4918ZM12.9713 17.2282C12.973 17.2288 12.9737 17.229 12.9737 17.2291C12.9737 17.2291 12.9728 17.2288 12.9713 17.2282Z" fill="#D1DCE6" stroke="white"/>
<path d="M4.82812 10.3969C4.82812 11.2406 4.99687 13.6875 4.99687 13.6875L5.75625 12.7312L6.65625 13.8L6.85312 12.3094L8.23125 13.2937L7.97813 11.8312L9.6375 12L8.87812 11.1L10.0312 10.3406C10.0312 10.3406 8.625 10.65 8.65313 9.7781C8.68125 8.90623 9.38438 6.43123 8.5125 6.0656C6.90938 5.47498 4.82812 6.82498 4.82812 10.3969Z" fill="#E1EAF2"/>
<path d="M4.82812 7.61254C4.93685 7.61254 5.025 7.57476 5.025 7.52816C5.025 7.48156 4.93685 7.44379 4.82812 7.44379C4.71939 7.44379 4.63125 7.48156 4.63125 7.52816C4.63125 7.57476 4.71939 7.61254 4.82812 7.61254Z" fill="#3E4347"/>
<path d="M6.23438 8.11877C6.46737 8.11877 6.65625 7.92989 6.65625 7.6969C6.65625 7.4639 6.46737 7.27502 6.23438 7.27502C6.00138 7.27502 5.8125 7.4639 5.8125 7.6969C5.8125 7.92989 6.00138 8.11877 6.23438 8.11877Z" fill="#3E4347"/>
<path d="M5.19375 9.6375C5.19375 10.5375 4.60312 9.89062 4.60312 9.89062C4.40625 9.89062 3.59062 10.5094 3.87187 9.46875C4.2375 8.11875 5.64375 7.21875 5.64375 7.21875C5.64375 7.21875 5.19375 8.00625 5.19375 9.6375Z" fill="#E24B4B"/>
<path d="M8.85 5.98127V5.64377C8.79375 4.94065 9.80625 4.6594 9.69375 4.29377C9.525 3.81565 8.20312 4.12502 7.55625 5.16565C7.47187 5.27815 7.41562 5.41877 7.3875 5.58752C7.35937 5.47502 7.33125 5.36252 7.275 5.25002C6.96562 4.60315 7.89375 4.01252 7.6125 3.70315C7.24687 3.28127 6.15 4.01252 5.89687 5.2219C5.84062 5.47502 5.84062 5.72815 5.925 5.98127C5.89687 5.95315 5.86875 5.92502 5.84062 5.92502C5.3625 5.5594 5.84062 4.80002 5.50312 4.63127C4.99687 4.40627 4.54687 5.41877 4.8 6.40315C4.96875 6.96565 5.5875 7.55627 6.09375 7.07815C6.2625 6.93752 6.65625 6.71252 6.88125 6.62815C7.05 6.5719 7.5 6.60002 7.78125 6.7969C8.03437 6.96565 8.23125 7.30315 8.59687 7.30315C10.2 7.3594 11.0719 5.81252 10.4812 5.47502C10.1719 5.25002 9.69375 5.81252 8.85 5.98127Z" fill="#E24B4B"/>
<path d="M14.9531 15.3469C14.7 14.7281 13.9687 14.3906 13.9687 14.3906C14.7281 13.9969 15.1781 13.1531 15.1781 13.1531C14.7844 12.9844 13.2656 12.8719 13.2656 12.8719C13.6031 12.5344 13.8844 12.0562 13.8844 12.0562C13.8844 12.0562 12.1406 11.6344 10.6781 12.4219C8.76562 13.4906 9.32812 16.0219 11.4937 16.3031C13.8844 16.6125 14.9531 15.3469 14.9531 15.3469Z" fill="#E1EAF2"/>
</svg>
