<svg width="24" height="24" viewBox="0 0 24 24" fill="none" xmlns="http://www.w3.org/2000/svg">
<path d="M20.7363 19.4628C20.8199 19.5464 20.8862 19.6457 20.9315 19.755C20.9767 19.8642 21 19.9813 21 20.0995C21 20.2178 20.9767 20.3349 20.9315 20.4441C20.8862 20.5534 20.8199 20.6526 20.7363 20.7363C20.6526 20.8199 20.5534 20.8862 20.4441 20.9315C20.3349 20.9767 20.2178 21 20.0995 21C19.9813 21 19.8642 20.9767 19.755 20.9315C19.6457 20.8862 19.5464 20.8199 19.4628 20.7363L12 13.2723L4.53716 20.7363C4.3683 20.9051 4.13926 21 3.90045 21C3.66164 21 3.4326 20.9051 3.26374 20.7363C3.09487 20.5674 3 20.3384 3 20.0995C3 19.8607 3.09487 19.6317 3.26374 19.4628L10.7277 12L3.26374 4.53716C3.09487 4.3683 3 4.13926 3 3.90045C3 3.66164 3.09487 3.4326 3.26374 3.26374C3.4326 3.09487 3.66164 3 3.90045 3C4.13926 3 4.3683 3.09487 4.53716 3.26374L12 10.7277L19.4628 3.26374C19.6317 3.09487 19.8607 3 20.0995 3C20.3384 3 20.5674 3.09487 20.7363 3.26374C20.9051 3.4326 21 3.66164 21 3.90045C21 4.13926 20.9051 4.3683 20.7363 4.53716L13.2723 12L20.7363 19.4628Z" fill="white"/>
</svg>
