<svg width="40" height="40" viewBox="0 0 40 40" fill="none" xmlns="http://www.w3.org/2000/svg">
<rect width="40" height="40" rx="20" fill="#E5B638"/>
<path fill-rule="evenodd" clip-rule="evenodd" d="M18.2044 9.62754C19.4133 8.41572 21.053 7.73482 22.7628 7.73462H26.0785C26.3227 7.73462 26.557 7.83187 26.7297 8.00498C26.9025 8.17809 26.9995 8.41288 26.9995 8.6577V13.0885C26.9995 13.3333 26.9025 13.5681 26.7297 13.7412C26.557 13.9143 26.3227 14.0115 26.0785 14.0115H22.7628C22.7386 14.0115 22.7147 14.0163 22.6923 14.0256C22.67 14.0349 22.6497 14.0485 22.6325 14.0656C22.6154 14.0828 22.6019 14.1031 22.5926 14.1255C22.5834 14.1479 22.5786 14.1719 22.5786 14.1962V16.5962H26.0785C26.2185 16.5961 26.3567 16.628 26.4825 16.6895C26.6084 16.751 26.7186 16.8404 26.8048 16.951C26.891 17.0616 26.9509 17.1904 26.98 17.3277C27.009 17.465 27.0064 17.6071 26.9725 17.7432L25.8672 22.174C25.8174 22.3738 25.7023 22.5511 25.5403 22.6778C25.3783 22.8044 25.1787 22.8732 24.9732 22.8731H22.5786V30.8115C22.5786 31.0564 22.4816 31.2911 22.3088 31.4643C22.1361 31.6374 21.9018 31.7346 21.6576 31.7346H17.2367C16.9924 31.7346 16.7582 31.6374 16.5854 31.4643C16.4127 31.2911 16.3157 31.0564 16.3157 30.8115V22.8731H13.921C13.6767 22.8731 13.4425 22.7758 13.2698 22.6027C13.097 22.4296 13 22.1948 13 21.95V17.5192C13 17.398 13.0238 17.278 13.0701 17.166C13.1164 17.054 13.1842 16.9522 13.2698 16.8665C13.3553 16.7808 13.4568 16.7128 13.5686 16.6664C13.6803 16.62 13.8001 16.5962 13.921 16.5962H16.3157V14.1962C16.3159 12.4825 16.9953 10.8392 18.2044 9.62754ZM22.7628 9.58077C21.5415 9.58077 20.3701 10.067 19.5065 10.9326C18.6429 11.7981 18.1577 12.9721 18.1577 14.1962V17.5192C18.1577 17.764 18.0607 17.9988 17.8879 18.1719C17.7152 18.3451 17.481 18.4423 17.2367 18.4423H14.842V21.0269H17.2367C17.481 21.0269 17.7152 21.1242 17.8879 21.2973C18.0607 21.4704 18.1577 21.7052 18.1577 21.95V29.8885H20.7366V21.95C20.7366 21.7052 20.8336 21.4704 21.0063 21.2973C21.179 21.1242 21.4133 21.0269 21.6576 21.0269H24.2536L24.8983 18.4423H21.6576C21.4133 18.4423 21.179 18.3451 21.0063 18.1719C20.8336 17.9988 20.7366 17.764 20.7366 17.5192V14.1962C20.7366 13.6576 20.95 13.141 21.33 12.7602C21.71 12.3793 22.2254 12.1654 22.7628 12.1654H25.1574V9.58077H22.7628Z" fill="black"/>
</svg>
