<svg width="24" height="24" viewBox="0 0 24 24" fill="none" xmlns="http://www.w3.org/2000/svg">
<path d="M12.6743 7.05412C12.7775 6.76279 12.8646 6.49474 12.9371 6.25658C14.3335 8.61798 15.0648 10.5681 15.3466 12.1573L15.4765 12.8897L16.1057 12.4929C16.6422 12.1546 17.0848 11.8378 17.4164 11.5853C17.7326 14.1888 17.1254 15.8412 16.099 16.8672C14.9441 18.0215 13.1455 18.5 11.1227 18.5C9.66868 18.5 7.74365 17.5144 6.91336 15.8565C6.50697 15.0451 6.35577 14.0604 6.6633 12.9186C6.93641 11.9046 7.57762 10.7457 8.76156 9.47165C8.76418 9.47708 8.76682 9.48253 8.76947 9.48801C8.98079 9.92416 9.30262 10.5272 9.7477 11.202L10.155 11.8195L10.5762 11.2113C11.6021 9.72943 12.2665 8.20468 12.6743 7.05412Z" fill="#FF9D33" stroke="white"/>
<path d="M14.6895 16.0731L14.3551 16.9192L14.8763 16.8193C14.4141 17.3877 13.9631 17.7649 13.5285 18.0148C12.8822 18.3865 12.2322 18.5 11.5556 18.5C11.0686 18.5 9.77817 18.1388 8.89143 16.2476L9.33039 16.437L9.34543 15.6934C9.36104 14.9213 9.57713 13.9581 10.1254 12.7611C10.2338 12.9839 10.364 13.2316 10.5174 13.4926L10.9413 14.2143L11.3758 13.499C12.0321 12.4188 12.4533 11.3184 12.7105 10.4921C12.7215 10.4567 12.7322 10.4217 12.7427 10.3873C13.4753 11.8708 13.8678 13.0961 14.0321 14.1169L14.1622 14.9251L14.8218 14.4403C14.944 14.3506 15.0584 14.2637 15.1648 14.1809C15.0625 14.9319 14.8924 15.5595 14.6895 16.0731Z" fill="#FFCE31" stroke="white"/>
<path d="M9.22197 14.5972C9.22197 14.5972 9.97098 15.4769 10.5327 15.2685C10.5327 15.2685 11.6027 13.8102 13.1542 13C13.1542 13 12.8332 15.2222 13.2077 15.6157C13.6892 16.1481 15 15.037 15 15.037C15 16.3565 13.3415 18 11.8435 18C10.399 18 8.31247 16.5648 9.22197 14.5972Z" fill="#FFDF85"/>
<path d="M15.7889 8.96967C16.2591 8.3146 16.5726 7.61585 16.5726 7.61585C17.3563 8.88233 16.8861 9.64658 16.5502 9.88678C16.08 10.2362 15.2514 9.73393 15.7889 8.96967ZM7.23513 8.75131C6.7649 7.98706 6.72011 7.02628 6.72011 7.02628C5.60052 8.66397 6.02596 9.58108 6.40663 9.84311C6.89925 10.2143 7.75014 9.64658 7.23513 8.75131ZM9.8326 7.04812C9.89977 6.52406 9.67585 6 9.67585 6C10.7283 6.67691 10.7283 7.24464 10.5939 7.48484C10.3924 7.7687 9.76542 7.63769 9.8326 7.04812Z" fill="#FF9D33"/>
</svg>
