<svg width="24" height="24" viewBox="0 0 24 24" fill="none" xmlns="http://www.w3.org/2000/svg">
<path d="M16.1669 4C14.446 4 12.9392 4.74004 12 5.99095C11.0608 4.74004 9.55401 4 7.83308 4C6.46319 4.00154 5.14984 4.54642 4.18118 5.51508C3.21252 6.48374 2.66765 7.79708 2.66611 9.16697C2.66611 15.0006 11.3158 19.7226 11.6841 19.9176C11.7812 19.9698 11.8897 19.9972 12 19.9972C12.1102 19.9972 12.2188 19.9698 12.3158 19.9176C12.6842 19.7226 21.3339 15.0006 21.3339 9.16697C21.3323 7.79708 20.7875 6.48374 19.8188 5.51508C18.8501 4.54642 17.5368 4.00154 16.1669 4ZM12 18.5675C10.4782 17.6808 3.99952 13.6414 3.99952 9.16697C4.00084 8.15065 4.40516 7.17634 5.1238 6.4577C5.84245 5.73905 6.81676 5.33473 7.83308 5.33341C9.45401 5.33341 10.8149 6.1968 11.3833 7.58354C11.4335 7.70583 11.519 7.81041 11.6288 7.88402C11.7386 7.95762 11.8678 7.99692 12 7.99692C12.1322 7.99692 12.2614 7.95762 12.3712 7.88402C12.481 7.81041 12.5665 7.70583 12.6167 7.58354C13.1851 6.1943 14.546 5.33341 16.1669 5.33341C17.1832 5.33473 18.1575 5.73905 18.8762 6.4577C19.5948 7.17634 19.9991 8.15065 20.0005 9.16697C20.0005 13.6347 13.5201 17.68 12 18.5675Z" fill="white"/>
</svg>
