<svg width="40" height="40" viewBox="0 0 40 40" fill="none" xmlns="http://www.w3.org/2000/svg">
<rect width="40" height="40" rx="20" fill="#E5B638"/>
<path d="M20.0001 24.4446C21.1788 24.4446 22.3093 23.9763 23.1428 23.1428C23.9763 22.3093 24.4446 21.1788 24.4446 20.0001C24.4446 18.8214 23.9763 17.6909 23.1428 16.8574C22.3093 16.0239 21.1788 15.5557 20.0001 15.5557C18.8214 15.5557 17.6909 16.0239 16.8574 16.8574C16.0239 17.6909 15.5557 18.8214 15.5557 20.0001C15.5557 21.1788 16.0239 22.3093 16.8574 23.1428C17.6909 23.9763 18.8214 24.4446 20.0001 24.4446Z" stroke="black" stroke-width="2" stroke-linecap="round" stroke-linejoin="round"/>
<path d="M10 24.4444V15.5556C10 14.0821 10.5853 12.6691 11.6272 11.6272C12.6691 10.5853 14.0821 10 15.5556 10H24.4444C25.9179 10 27.3309 10.5853 28.3728 11.6272C29.4147 12.6691 30 14.0821 30 15.5556V24.4444C30 25.9179 29.4147 27.3309 28.3728 28.3728C27.3309 29.4147 25.9179 30 24.4444 30H15.5556C14.0821 30 12.6691 29.4147 11.6272 28.3728C10.5853 27.3309 10 25.9179 10 24.4444Z" stroke="black" stroke-width="2"/>
<path d="M26.1113 13.8999L26.1224 13.8877" stroke="black" stroke-width="2" stroke-linecap="round" stroke-linejoin="round"/>
</svg>
