<svg width="30" height="30" viewBox="0 0 30 30" fill="none" xmlns="http://www.w3.org/2000/svg">
<path d="M15 16.4063C14.3047 16.4063 13.625 16.2001 13.0468 15.8138C12.4687 15.4275 12.0181 14.8784 11.752 14.236C11.4859 13.5936 11.4163 12.8867 11.5519 12.2048C11.6876 11.5228 12.0224 10.8964 12.5141 10.4047C13.0057 9.91304 13.6322 9.5782 14.3141 9.44255C14.9961 9.3069 15.703 9.37652 16.3454 9.64261C16.9878 9.9087 17.5368 10.3593 17.9231 10.9375C18.3094 11.5156 18.5156 12.1953 18.5156 12.8906C18.5145 13.8227 18.1438 14.7163 17.4847 15.3753C16.8256 16.0344 15.9321 16.4051 15 16.4063ZM15 10.7813C14.5828 10.7813 14.175 10.905 13.8281 11.1367C13.4812 11.3685 13.2108 11.698 13.0512 12.0834C12.8915 12.4688 12.8498 12.893 12.9312 13.3021C13.0125 13.7113 13.2134 14.0872 13.5084 14.3822C13.8034 14.6772 14.1793 14.8781 14.5885 14.9595C14.9977 15.0409 15.4218 14.9991 15.8072 14.8394C16.1927 14.6798 16.5221 14.4094 16.7539 14.0625C16.9857 13.7156 17.1094 13.3078 17.1094 12.8906C17.1088 12.3314 16.8864 11.7952 16.4909 11.3997C16.0955 11.0042 15.5593 10.7818 15 10.7813Z" fill="#E5B638"/>
<path d="M15 24.8438L9.06845 17.8484C8.98603 17.7433 8.90446 17.6376 8.82376 17.5312C7.81054 16.1966 7.26318 14.5663 7.26563 12.8906C7.26563 10.8393 8.0805 8.87207 9.53098 7.4216C10.9815 5.97112 12.9487 5.15625 15 5.15625C17.0513 5.15625 19.0186 5.97112 20.469 7.4216C21.9195 8.87207 22.7344 10.8393 22.7344 12.8906C22.7368 14.5656 22.1897 16.1951 21.177 17.5291L21.1763 17.5312C21.1763 17.5312 20.9653 17.8083 20.9337 17.8455L15 24.8438ZM9.94665 16.684C9.94665 16.684 10.1105 16.9005 10.1477 16.947L15 22.6697L19.8586 16.9392C19.8895 16.9005 20.0541 16.6826 20.0548 16.6819C20.8825 15.5914 21.3298 14.2596 21.3281 12.8906C21.3281 11.2123 20.6614 9.60272 19.4747 8.41596C18.2879 7.22921 16.6783 6.5625 15 6.5625C13.3217 6.5625 11.7121 7.22921 10.5253 8.41596C9.33859 9.60272 8.67188 11.2123 8.67188 12.8906C8.67041 14.2605 9.11821 15.593 9.94665 16.684Z" fill="#E5B638"/>
</svg>
