<svg width="40" height="40" viewBox="0 0 40 40" fill="none" xmlns="http://www.w3.org/2000/svg">
<rect width="40" height="40" rx="20" fill="#E5B638"/>
<path d="M26.875 10.7346C27.7038 10.7346 28.4987 11.0791 29.0847 11.6922C29.6708 12.3053 30 13.1368 30 14.0038V24.4654C30 25.3324 29.6708 26.164 29.0847 26.7771C28.4987 27.3902 27.7038 27.7346 26.875 27.7346H13.125C12.2962 27.7346 11.5013 27.3902 10.9153 26.7771C10.3292 26.164 10 25.3324 10 24.4654V14.0038C10 13.1368 10.3292 12.3053 10.9153 11.6922C11.5013 11.0791 12.2962 10.7346 13.125 10.7346H26.875ZM28.75 15.9144L20.3175 21.1059C20.2378 21.1549 20.1487 21.1847 20.0566 21.1933C19.9645 21.2019 19.8717 21.1891 19.785 21.1556L19.6825 21.1059L11.25 15.917V24.4654C11.25 24.9856 11.4475 25.4845 11.7992 25.8524C12.1508 26.2203 12.6277 26.4269 13.125 26.4269H26.875C27.3723 26.4269 27.8492 26.2203 28.2008 25.8524C28.5525 25.4845 28.75 24.9856 28.75 24.4654V15.9144ZM26.875 12.0423H13.125C12.6277 12.0423 12.1508 12.249 11.7992 12.6168C11.4475 12.9847 11.25 13.4836 11.25 14.0038V14.3988L20 19.7838L28.75 14.3962V14.0038C28.75 13.4836 28.5525 12.9847 28.2008 12.6168C27.8492 12.249 27.3723 12.0423 26.875 12.0423Z" fill="black"/>
</svg>
