<svg width="24" height="24" viewBox="0 0 24 24" fill="none" xmlns="http://www.w3.org/2000/svg">
<path d="M15 11.063C12.53 13.65 10.059 20 10.059 20C10.059 20 6.529 11.063 3 9" stroke="#00DE31" stroke-width="1.5" stroke-linecap="round" stroke-linejoin="round"/>
<path d="M20.496 5.57698L20.922 10.001C21.198 12.871 19.047 15.426 16.177 15.703C13.361 15.973 10.81 13.915 10.539 11.099C10.4744 10.4294 10.5424 9.75358 10.7391 9.11023C10.9357 8.46688 11.2572 7.86858 11.6851 7.34948C12.113 6.83038 12.639 6.40067 13.233 6.08487C13.827 5.76908 14.4774 5.57339 15.147 5.50898L19.863 5.05498C19.9388 5.04767 20.0154 5.05538 20.0883 5.07766C20.1611 5.09994 20.2289 5.13636 20.2877 5.18483C20.3464 5.23331 20.3951 5.29289 20.4308 5.36018C20.4666 5.42747 20.4887 5.50114 20.496 5.57698Z" stroke="#00DE31" stroke-width="1.5" stroke-linecap="round" stroke-linejoin="round"/>
</svg>
