<svg width="30" height="30" viewBox="0 0 30 30" fill="none" xmlns="http://www.w3.org/2000/svg">
<path d="M15 25C13.0222 25 11.0888 24.4135 9.4443 23.3147C7.79981 22.2159 6.51809 20.6541 5.76121 18.8268C5.00433 16.9996 4.8063 14.9889 5.19215 13.0491C5.578 11.1093 6.53041 9.32746 7.92894 7.92894C9.32746 6.53041 11.1093 5.578 13.0491 5.19215C14.9889 4.8063 16.9996 5.00433 18.8268 5.76121C20.6541 6.51809 22.2159 7.79981 23.3147 9.4443C24.4135 11.0888 25 13.0222 25 15C25 17.6522 23.9464 20.1957 22.0711 22.0711C20.1957 23.9464 17.6522 25 15 25ZM15 6.42858C13.3047 6.42858 11.6475 6.93128 10.238 7.87312C8.82841 8.81496 7.72979 10.1536 7.08104 11.7199C6.43229 13.2861 6.26254 15.0095 6.59327 16.6722C6.924 18.3349 7.74035 19.8622 8.93909 21.0609C10.1378 22.2597 11.6651 23.076 13.3278 23.4067C14.9905 23.7375 16.7139 23.5677 18.2801 22.919C19.8464 22.2702 21.185 21.1716 22.1269 19.762C23.0687 18.3525 23.5714 16.6953 23.5714 15C23.5714 12.7267 22.6684 10.5465 21.0609 8.93909C19.4535 7.33163 17.2733 6.42858 15 6.42858Z" fill="#E5B638"/>
<path d="M17.7429 18.75L13.75 15.0233V8.75H15.1786V14.47L18.75 17.81L17.7429 18.75Z" fill="#E5B638"/>
</svg>
